<svg width="240" height="240" viewBox="0 0 240 240" fill="none" xmlns="http://www.w3.org/2000/svg">
<circle cx="120" cy="120" r="120" fill="#F85532"/>
<path d="M36 138.758H48.3804C53.9033 138.758 58.3784 143.235 58.3784 148.758V161.5C58.3784 165.799 61.8633 169.284 66.1622 169.284C70.461 169.284 73.9459 165.799 73.9459 161.5V82.0787C73.9459 77.1529 77.9391 73.1598 82.8649 73.1598C87.7906 73.1598 91.7838 77.1529 91.7838 82.0787V172.378C91.7838 176.588 95.1961 180 99.4054 180C103.615 180 107.027 176.576 107.027 172.366V64.0097C107.027 58.4868 111.504 54 117.027 54H122.973C128.496 54 132.973 58.4868 132.973 64.0097V172.366C132.973 176.576 136.385 180 140.595 180C144.804 180 148.216 176.588 148.216 172.378V82.0787C148.216 77.1529 152.209 73.1598 157.135 73.1598C162.061 73.1598 166.054 77.1529 166.054 82.0787V161.5C166.054 165.799 169.539 169.284 173.838 169.284C178.137 169.284 181.622 165.799 181.622 161.5V148.758C181.622 143.235 186.097 138.758 191.62 138.758H197.81H204" stroke="black" stroke-width="10" stroke-linecap="round"/>
</svg>
